<svg class="amazon" viewBox="0 0 118 35" fill="none" xmlns="http://www.w3.org/2000/svg" title="amazon logo"><path d="M72.945 27.363C66.15 32.327 56.28 35 47.822 35c-11.883 0-22.594-4.359-30.701-11.646-.64-.572-.064-1.337.706-.89 8.747 5.058 19.547 8.082 30.73 8.082 8.05-.04 16.011-1.659 23.428-4.764 1.12-.477 2.114.764.96 1.588" fill="#F90"></path><path d="M75.801 24.15c-.864-1.114-5.736-.508-7.945-.254-.674.095-.77-.51-.163-.923 3.885-2.705 10.256-1.94 10.994-1.02.738.922-.194 7.261-3.846 10.279-.546.476-1.09.227-.834-.413.802-2.006 2.66-6.555 1.794-7.669Z" fill="#F90"></path><path d="M68.011 3.819V1.178a.65.65 0 0 1 .412-.623.662.662 0 0 1 .26-.047h11.883a.663.663 0 0 1 .625.411.65.65 0 0 1 .047.259v2.268c0 .382-.32.858-.896 1.654l-6.14 8.74c2.285-.063 4.712.288 6.793 1.432a1.165 1.165 0 0 1 .642 1.019v2.797c0 .381-.418.828-.866.606a13.756 13.756 0 0 0-12.568.032c-.416.227-.834-.227-.834-.606v-2.67c0-.454 0-1.178.457-1.816l7.146-10.182h-6.225a.624.624 0 0 1-.687-.364.61.61 0 0 1-.049-.272M24.588 20.3h-3.63a.688.688 0 0 1-.64-.604V1.241a.675.675 0 0 1 .435-.634.69.69 0 0 1 .268-.047h3.366a.64.64 0 0 1 .64.606v2.419h.064c.866-2.323 2.532-3.403 4.776-3.403 2.244 0 3.684 1.082 4.71 3.403.866-2.323 2.852-3.403 5-3.403a5.287 5.287 0 0 1 2.335.515 5.249 5.249 0 0 1 1.863 1.49c1.154 1.559.898 3.819.898 5.79v11.656a.676.676 0 0 1-.44.622.69.69 0 0 1-.266.045h-3.613a.688.688 0 0 1-.451-.21.678.678 0 0 1-.189-.457v-9.77c0-.762.064-2.705-.096-3.467-.256-1.241-1.09-1.588-2.116-1.588a2.436 2.436 0 0 0-1.32.44 2.41 2.41 0 0 0-.858 1.087c-.386.92-.322 2.482-.322 3.53v9.768a.677.677 0 0 1-.439.622.69.69 0 0 1-.265.045h-3.622a.687.687 0 0 1-.64-.667v-9.77c0-2.067.352-5.09-2.244-5.09S25.3 7.744 25.3 9.864v9.77a.697.697 0 0 1-.217.474.706.706 0 0 1-.487.193M91.5.19c5.384 0 8.268 4.584 8.268 10.406 0 5.631-3.2 10.085-8.268 10.085-5.288 0-8.14-4.58-8.14-10.276 0-5.76 2.916-10.21 8.14-10.21V.191Zm.032 3.76c-2.66 0-2.82 3.596-2.82 5.854s-.032 7.065 2.82 7.065 2.948-3.882 2.948-6.237c0-1.559-.064-3.403-.544-4.9-.457-1.274-1.25-1.782-2.404-1.782ZM106.754 20.3h-3.588a.687.687 0 0 1-.642-.667V1.178a.68.68 0 0 1 .706-.606h3.364a.658.658 0 0 1 .642.51v2.832h.064C108.324 1.4 109.733.19 112.233.19c1.634 0 3.2.574 4.23 2.164.962 1.464.962 3.946.962 5.727v11.614a.676.676 0 0 1-.243.42.69.69 0 0 1-.463.152h-3.683a.686.686 0 0 1-.643-.572V9.672c0-2.003.229-4.962-2.273-4.962a2.346 2.346 0 0 0-1.262.424c-.37.26-.656.621-.822 1.04-.512 1.111-.576 2.257-.576 3.498v9.929a.708.708 0 0 1-.706.699ZM64.965 16.896c-.672-.923-1.371-1.656-1.371-3.342v-5.6c0-2.386.162-4.548-1.6-6.173C60.624.445 58.311 0 56.546 0c-3.427 0-7.312 1.273-8.107 5.504a.643.643 0 0 0 .3.677c.075.045.159.075.246.088l3.492.381c.32 0 .578-.318.642-.68.288-1.464 1.538-2.163 2.916-2.163.735 0 1.6.286 2.017.924.514.73.457 1.749.457 2.607v.478c-2.084.227-4.84.382-6.793 1.241-2.285.985-3.846 2.95-3.846 5.886 0 3.723 2.372 5.6 5.416 5.6 2.563 0 3.973-.604 5.96-2.61.641.956.865 1.4 2.083 2.387a.79.79 0 0 0 .864-.095c.738-.635 2.057-1.781 2.788-2.387.274-.21.21-.624-.016-.942Zm-7.114-1.624c-.576 1.019-1.506 1.624-2.5 1.624-1.37 0-2.21-1.05-2.21-2.609 0-3.056 2.757-3.63 5.384-3.63v.765c0 1.465.032 2.609-.674 3.85ZM17.507 16.896c-.686-.923-1.371-1.656-1.371-3.342v-5.6c0-2.386.16-4.548-1.6-6.173C13.165.445 10.852 0 9.088 0 5.661 0 1.815 1.273.981 5.504a.644.644 0 0 0 .3.676.656.656 0 0 0 .246.089l3.523.381c.323 0 .579-.318.643-.68.288-1.464 1.537-2.163 2.915-2.163.739 0 1.6.286 2.018.924.514.73.457 1.749.457 2.607v.478C9 8.043 6.243 8.198 4.29 9.057c-2.298.996-3.864 2.97-3.864 5.897 0 3.724 2.372 5.6 5.416 5.6 2.564 0 3.974-.604 5.96-2.61.685.956.866 1.4 2.084 2.388a.793.793 0 0 0 .866-.096c.736-.635 2.057-1.78 2.788-2.387.256-.222.192-.635-.032-.953Zm-7.116-1.624c-.576 1.019-1.474 1.624-2.5 1.624-1.371 0-2.21-1.05-2.21-2.609 0-3.056 2.756-3.63 5.384-3.63v.765c0 1.465.032 2.609-.674 3.85Z" fill="#221F1F"></path></svg>
